<svg height="387pt" viewBox="0.00 0.00 242.00 387.00" width="242pt" xmlns="http://www.w3.org/2000/svg" xmlns:xlink="http://www.w3.org/1999/xlink">
<g class="graph" id="graph0" transform="scale(1 1) rotate(0) translate(4 383)">
<title>G</title>
<polygon fill="#ffffff" points="-4,4 -4,-383 238,-383 238,4 -4,4" stroke="transparent"/>
<!-- 112199112464 -->
<g class="node" id="node1">
<title>112199112464</title>
<polygon fill="none" points="34,-332.5 34,-378.5 200,-378.5 200,-332.5 34,-332.5" stroke="#000000"/>
<text fill="#000000" font-family="Times,serif" font-size="14.00" text-anchor="middle" x="65.5" y="-351.8">InputLayer</text>
<polyline fill="none" points="97,-332.5 97,-378.5 " stroke="#000000"/>
<text fill="#000000" font-family="Times,serif" font-size="14.00" text-anchor="middle" x="120" y="-363.3">input:</text>
<polyline fill="none" points="97,-355.5 143,-355.5 " stroke="#000000"/>
<text fill="#000000" font-family="Times,serif" font-size="14.00" text-anchor="middle" x="120" y="-340.3">output:</text>
<polyline fill="none" points="143,-332.5 143,-378.5 " stroke="#000000"/>
<text fill="#000000" font-family="Times,serif" font-size="14.00" text-anchor="middle" x="171.5" y="-363.3">(None, 2)</text>
<polyline fill="none" points="143,-355.5 200,-355.5 " stroke="#000000"/>
<text fill="#000000" font-family="Times,serif" font-size="14.00" text-anchor="middle" x="171.5" y="-340.3">(None, 2)</text>
</g>
<!-- 112199112576 -->
<g class="node" id="node2">
<title>112199112576</title>
<polygon fill="none" points="33.5,-249.5 33.5,-295.5 200.5,-295.5 200.5,-249.5 33.5,-249.5" stroke="#000000"/>
<text fill="#000000" font-family="Times,serif" font-size="14.00" text-anchor="middle" x="55" y="-268.8">Dense</text>
<polyline fill="none" points="76.5,-249.5 76.5,-295.5 " stroke="#000000"/>
<text fill="#000000" font-family="Times,serif" font-size="14.00" text-anchor="middle" x="99.5" y="-280.3">input:</text>
<polyline fill="none" points="76.5,-272.5 122.5,-272.5 " stroke="#000000"/>
<text fill="#000000" font-family="Times,serif" font-size="14.00" text-anchor="middle" x="99.5" y="-257.3">output:</text>
<polyline fill="none" points="122.5,-249.5 122.5,-295.5 " stroke="#000000"/>
<text fill="#000000" font-family="Times,serif" font-size="14.00" text-anchor="middle" x="161.5" y="-280.3">(None, 2)</text>
<polyline fill="none" points="122.5,-272.5 200.5,-272.5 " stroke="#000000"/>
<text fill="#000000" font-family="Times,serif" font-size="14.00" text-anchor="middle" x="161.5" y="-257.3">(None, 12544)</text>
</g>
<!-- 112199112464&#45;&gt;112199112576 -->
<g class="edge" id="edge1">
<title>112199112464-&gt;112199112576</title>
<path d="M117,-332.3799C117,-324.1745 117,-314.7679 117,-305.8786" fill="none" stroke="#000000"/>
<polygon fill="#000000" points="120.5001,-305.784 117,-295.784 113.5001,-305.784 120.5001,-305.784" stroke="#000000"/>
</g>
<!-- 112199112240 -->
<g class="node" id="node3">
<title>112199112240</title>
<polygon fill="none" points="21.5,-166.5 21.5,-212.5 212.5,-212.5 212.5,-166.5 21.5,-166.5" stroke="#000000"/>
<text fill="#000000" font-family="Times,serif" font-size="14.00" text-anchor="middle" x="47.5" y="-185.8">Reshape</text>
<polyline fill="none" points="73.5,-166.5 73.5,-212.5 " stroke="#000000"/>
<text fill="#000000" font-family="Times,serif" font-size="14.00" text-anchor="middle" x="96.5" y="-197.3">input:</text>
<polyline fill="none" points="73.5,-189.5 119.5,-189.5 " stroke="#000000"/>
<text fill="#000000" font-family="Times,serif" font-size="14.00" text-anchor="middle" x="96.5" y="-174.3">output:</text>
<polyline fill="none" points="119.5,-166.5 119.5,-212.5 " stroke="#000000"/>
<text fill="#000000" font-family="Times,serif" font-size="14.00" text-anchor="middle" x="166" y="-197.3">(None, 12544)</text>
<polyline fill="none" points="119.5,-189.5 212.5,-189.5 " stroke="#000000"/>
<text fill="#000000" font-family="Times,serif" font-size="14.00" text-anchor="middle" x="166" y="-174.3">(None, 14, 14, 64)</text>
</g>
<!-- 112199112576&#45;&gt;112199112240 -->
<g class="edge" id="edge2">
<title>112199112576-&gt;112199112240</title>
<path d="M117,-249.3799C117,-241.1745 117,-231.7679 117,-222.8786" fill="none" stroke="#000000"/>
<polygon fill="#000000" points="120.5001,-222.784 117,-212.784 113.5001,-222.784 120.5001,-222.784" stroke="#000000"/>
</g>
<!-- 112199112128 -->
<g class="node" id="node4">
<title>112199112128</title>
<polygon fill="none" points="0,-83.5 0,-129.5 234,-129.5 234,-83.5 0,-83.5" stroke="#000000"/>
<text fill="#000000" font-family="Times,serif" font-size="14.00" text-anchor="middle" x="47.5" y="-102.8">Conv2DTranspose</text>
<polyline fill="none" points="95,-83.5 95,-129.5 " stroke="#000000"/>
<text fill="#000000" font-family="Times,serif" font-size="14.00" text-anchor="middle" x="118" y="-114.3">input:</text>
<polyline fill="none" points="95,-106.5 141,-106.5 " stroke="#000000"/>
<text fill="#000000" font-family="Times,serif" font-size="14.00" text-anchor="middle" x="118" y="-91.3">output:</text>
<polyline fill="none" points="141,-83.5 141,-129.5 " stroke="#000000"/>
<text fill="#000000" font-family="Times,serif" font-size="14.00" text-anchor="middle" x="187.5" y="-114.3">(None, 14, 14, 64)</text>
<polyline fill="none" points="141,-106.5 234,-106.5 " stroke="#000000"/>
<text fill="#000000" font-family="Times,serif" font-size="14.00" text-anchor="middle" x="187.5" y="-91.3">(None, 28, 28, 32)</text>
</g>
<!-- 112199112240&#45;&gt;112199112128 -->
<g class="edge" id="edge3">
<title>112199112240-&gt;112199112128</title>
<path d="M117,-166.3799C117,-158.1745 117,-148.7679 117,-139.8786" fill="none" stroke="#000000"/>
<polygon fill="#000000" points="120.5001,-139.784 117,-129.784 113.5001,-139.784 120.5001,-139.784" stroke="#000000"/>
</g>
<!-- 112199111736 -->
<g class="node" id="node5">
<title>112199111736</title>
<polygon fill="none" points="21.5,-.5 21.5,-46.5 212.5,-46.5 212.5,-.5 21.5,-.5" stroke="#000000"/>
<text fill="#000000" font-family="Times,serif" font-size="14.00" text-anchor="middle" x="47.5" y="-19.8">Conv2D</text>
<polyline fill="none" points="73.5,-.5 73.5,-46.5 " stroke="#000000"/>
<text fill="#000000" font-family="Times,serif" font-size="14.00" text-anchor="middle" x="96.5" y="-31.3">input:</text>
<polyline fill="none" points="73.5,-23.5 119.5,-23.5 " stroke="#000000"/>
<text fill="#000000" font-family="Times,serif" font-size="14.00" text-anchor="middle" x="96.5" y="-8.3">output:</text>
<polyline fill="none" points="119.5,-.5 119.5,-46.5 " stroke="#000000"/>
<text fill="#000000" font-family="Times,serif" font-size="14.00" text-anchor="middle" x="166" y="-31.3">(None, 28, 28, 32)</text>
<polyline fill="none" points="119.5,-23.5 212.5,-23.5 " stroke="#000000"/>
<text fill="#000000" font-family="Times,serif" font-size="14.00" text-anchor="middle" x="166" y="-8.3">(None, 28, 28, 1)</text>
</g>
<!-- 112199112128&#45;&gt;112199111736 -->
<g class="edge" id="edge4">
<title>112199112128-&gt;112199111736</title>
<path d="M117,-83.3799C117,-75.1745 117,-65.7679 117,-56.8786" fill="none" stroke="#000000"/>
<polygon fill="#000000" points="120.5001,-56.784 117,-46.784 113.5001,-56.784 120.5001,-56.784" stroke="#000000"/>
</g>
</g>
</svg>